<svg width="512" height="512" viewBox="0 0 512 512" fill="none" xmlns="http://www.w3.org/2000/svg">
<circle cx="256" cy="256" r="256" fill="#F5CB5C"/>
<path d="M396.702 121.317C393.639 114.482 384.888 114.208 381.224 120.661C364.269 150.133 333.914 168.506 299.239 168.506H255.485C197.511 168.506 150.475 215.531 150.475 273.492C150.475 277.319 150.913 280.983 151.295 284.701C186.189 259.712 236.561 238.497 307.99 238.497C312.803 238.497 316.741 242.433 316.741 247.245C316.741 252.057 312.803 255.994 307.99 255.994C170.493 255.994 112.19 340.256 99.2827 371.916C95.673 380.829 99.939 391 108.854 394.663C117.824 398.381 127.996 394.062 131.715 385.203C132.536 383.235 143.146 359.012 171.04 335.663C188.76 359.668 222.451 382.579 266.697 377.876C352.565 371.643 413 294.653 413 200.384C413 172.935 407.093 144.501 396.702 121.317Z" fill="white"/>
</svg>
